<?xml version="1.0" encoding="UTF-8" standalone="no"?>
<!-- Created with Inkscape (http://www.inkscape.org/) -->

<svg
   version="1.1"
   id="svg2"
   width="379.84"
   height="439.67999"
   viewBox="0 0 379.84 439.67999"
   sodipodi:docname="LOGO-CUBIPNG.png"
   inkscape:version="1.1.2 (0a00cf5339, 2022-02-04)"
   xmlns:inkscape="http://www.inkscape.org/namespaces/inkscape"
   xmlns:sodipodi="http://sodipodi.sourceforge.net/DTD/sodipodi-0.dtd"
   xmlns:xlink="http://www.w3.org/1999/xlink"
   xmlns="http://www.w3.org/2000/svg"
   xmlns:svg="http://www.w3.org/2000/svg"
   >
  <defs
     id="defs6" />
  <sodipodi:namedview
     id="namedview4"
     pagecolor="#ffffff"
     bordercolor="#666666"
     borderopacity="1.0"
     inkscape:pageshadow="2"
     inkscape:pageopacity="0.0"
     inkscape:pagecheckerboard="0"
     showgrid="false"
     inkscape:zoom="1.5511281"
     inkscape:cx="190.18416"
     inkscape:cy="219.84"
     inkscape:window-width="1280"
     inkscape:window-height="994"
     inkscape:window-x="3520"
     inkscape:window-y="0"
     inkscape:window-maximized="1"
     inkscape:current-layer="g8" />
  <g
     inkscape:groupmode="layer"
     inkscape:label="Image"
     id="g8">
    <path
       style="fill: #b62d60;stroke-width:0.32"
       d="m 197.12613,331.75999 0.006,-107.28 1.99388,-1.15204 c 3.18182,-1.83842 35.05403,-20.53663 41.03388,-24.073 14.83887,-8.77542 23.32885,-12.63294 29.4629,-13.38677 2.59509,-0.31891 3.33534,-0.292 5.63505,0.20488 4.66725,1.00842 7.46442,2.63491 9.77495,5.68391 1.61291,2.12843 2.05241,2.96923 3.29593,6.30547 3.62742,9.73196 4.13765,25.75194 1.28474,40.33755 -2.52773,12.92316 -6.73505,23.59416 -13.02684,33.03998 -1.50084,2.25319 -2.65399,4.29167 -2.56255,4.52993 0.12718,0.33144 0.49161,0.37034 1.55103,0.16559 2.42245,-0.46817 6.38737,-0.3319 8.65733,0.29754 1.17628,0.32618 3.08797,1.21152 4.24819,1.96744 8.19548,5.33956 11.99628,16.49084 11.9974,35.19952 0.002,26.65843 -8.28171,51.69373 -23.90272,72.24311 -5.54059,7.2886 -12.39369,13.53321 -21.55247,19.63878 -2.5393,1.69277 -57.35725,33.55811 -57.73006,33.55811 -0.0951,0 -0.17012,-48.276 -0.16675,-107.28 z m 37.79112,45.97008 c 13.0177,-7.62253 15.10499,-9.00621 18.42706,-12.21536 4.59935,-4.44301 7.20996,-8.05757 9.29877,-12.87472 3.01696,-6.9576 4.0678,-12.48621 4.04476,-21.28 -0.0237,-9.05469 -0.97718,-12.82105 -4.02943,-15.91714 -1.79365,-1.8194 -3.18231,-2.28097 -6.30043,-2.09416 -2.6999,0.16176 -4.87557,1.02718 -10.35368,4.1184 -1.63036,0.91999 -3.5403,1.98369 -4.2443,2.36378 -3.20027,1.72781 -12.18388,7.06077 -12.3951,7.35811 -0.33537,0.4722 -0.30331,53.61101 0.0324,53.61101 0.15249,0 2.63649,-1.38147 5.52,-3.06992 z m -2.00553,-89.61101 c 9.2347,-5.38523 12.74762,-7.70838 14.93845,-9.87907 7.57028,-7.50064 10.98594,-16.94016 10.64308,-29.41321 -0.20422,-7.42981 -1.79695,-12.06469 -4.73325,-13.77389 -1.42781,-0.83112 -4.42553,-0.8413 -6.60414,-0.0224 -1.90088,0.71447 -16.3092,8.72279 -17.47586,9.71329 -0.52345,0.44441 -0.56,1.9342 -0.56,22.82585 0,16.03064 0.0994,22.3504 0.35172,22.3504 0.19344,0 1.74144,-0.81042 3.44,-1.80093 z M 164.885,421.92245 c -10.74623,-1.94854 -25.87942,-10.59494 -36.68369,-20.95932 -13.13604,-12.60125 -22.18885,-29.9352 -25.32077,-48.48314 -1.35266,-8.01078 -1.48052,-10.4112 -1.63628,-30.72 -0.23112,-30.13275 -0.69854,-149.74448 -0.58569,-149.87219 0.0545,-0.0617 6.73266,3.73506 14.84029,8.43725 l 14.74114,8.54944 0.002,4.68275 c 0.008,16.62249 1.30217,163.09578 1.45366,164.52275 0.7815,7.36112 3.16658,13.5233 7.09152,18.32192 2.16328,2.6448 3.97387,4.18464 7.58926,6.45447 5.1481,3.23206 9.54302,4.02748 12.14807,2.19859 2.74277,-1.9256 3.7125,-4.95383 3.92441,-12.25498 0.0843,-2.904 -0.28237,-41.41792 -0.81481,-85.58647 -0.53244,-44.16856 -0.91269,-80.36186 -0.84499,-80.42956 0.1419,-0.1419 26.68411,15.17138 27.29693,15.74872 0.58689,0.5529 3.11439,164.70587 2.63519,171.14616 -0.82597,11.10057 -3.49087,18.78093 -8.14579,23.47661 -4.53406,4.57372 -10.25493,6.11529 -17.6907,4.767 z m 144.63246,-66.76953 0.0825,-18.95232 9.12,-5.30438 9.12,-5.30439 -0.12554,-67.83591 c -0.069,-37.30976 -0.21302,-68.80332 -0.32,-69.98569 l -0.19446,-2.14977 -8.96,5.26345 c -4.928,2.8949 -9.0529,5.26629 -9.16645,5.26977 -0.11355,0.003 -0.22431,-8.38168 -0.24613,-18.63368 l -0.0397,-18.64 2.00612,-1.15226 c 1.10337,-0.63374 6.90213,-4.03454 12.88613,-7.55733 5.984,-3.5228 18.8,-11.05329 28.48,-16.73444 9.68,-5.68115 19.52298,-11.46937 21.87328,-12.86272 2.3503,-1.39334 4.31043,-2.48833 4.35581,-2.4333 0.0454,0.055 0.16989,8.42072 0.2767,18.59042 l 0.19418,18.49038 -1.66999,1.051 c -0.91849,0.57805 -5.08998,3.05081 -9.26998,5.49502 l -7.6,4.44401 0.0307,26.73461 c 0.051,44.37865 0.43683,112.90888 0.63674,113.10876 0.1031,0.1031 4.2784,-2.19099 9.27843,-5.09799 5.00003,-2.90699 9.11635,-5.17535 9.14736,-5.0408 0.031,0.13455 0.12147,8.62903 0.20102,18.87663 l 0.14471,18.632 -19.71952,11.42291 c -10.84573,6.2826 -26.34349,15.26378 -34.43949,19.95818 -8.096,4.6944 -15.04515,8.70736 -15.44255,8.91773 l -0.72254,0.38243 0.0825,-18.95232 z M 63.84,364.33318 C 54.219446,362.57631 40.370586,354.98246 29.627177,345.57298 15.241973,332.97385 5.4583459,315.2747 1.9592125,295.51999 1.4034908,292.38261 0.90877283,288.01167 0.53398077,282.92776 0.27663342,279.43694 1.5961672,157.56001 1.9181917,155.07701 3.7632851,140.85024 8.9426026,132.69973 17.60242,130.3953 c 2.262608,-0.6021 7.48049,-0.60665 10.55758,-0.009 12.220778,2.37272 29.335859,13.05487 40.269888,25.13392 13.075546,14.44482 20.369296,31.99777 22.113344,53.21743 0.346512,4.21597 0.479136,28.06256 0.15607,28.06256 -0.214582,0 -25.370547,-14.43626 -27.076774,-15.53856 l -1.177475,-0.7607 -0.136307,-14.97037 c -0.144628,-15.88426 -0.166983,-16.14119 -1.844903,-21.20346 -2.463117,-7.43119 -8.416701,-13.96642 -15.722528,-17.25855 -7.013936,-3.16061 -10.918614,-1.31354 -12.61287,5.96638 -0.436878,1.87718 -0.543893,7.91296 -0.804335,45.36527 -0.165225,23.75999 -0.250244,52.55999 -0.18893,63.99999 0.107288,20.01815 0.137454,20.90668 0.802493,23.63791 0.766887,3.14951 2.333613,6.99397 3.956561,9.70867 2.504931,4.18999 8.128531,9.01921 13.101238,11.25061 5.99735,2.69116 9.554173,1.86176 11.694349,-2.72701 C 62.272758,320.87618 62.4,319.08956 62.4,300.25761 c 0,-16.48319 0.03091,-17.43432 0.56,-17.23293 0.308,0.11723 6.700195,3.73662 14.20488,8.04309 l 13.64488,7.82993 0.233821,6.8595 c 0.357613,10.49102 0.0026,30.33844 -0.615456,34.40279 -2.14705,14.12026 -7.51656,22.09562 -16.264839,24.15821 -2.412563,0.56883 -7.251958,0.57584 -10.323286,0.015 z M 181.92,214.96394 c -4.576,-2.6676 -25.00092,-14.51949 -45.38872,-26.33752 -20.38779,-11.81803 -37.061456,-21.61763 -37.052586,-21.77688 0.0089,-0.15925 42.393786,-24.74428 94.188716,-54.6334 68.66219,-39.62265 94.30262,-54.267847 94.65259,-54.063281 15.63052,9.13641 89.84038,53.732001 89.67616,53.889911 -0.12989,0.12491 -6.15885,3.62494 -13.39766,7.77783 l -13.16151,7.55072 -17.55849,-10.44851 c -9.65719,-5.74668 -22.50933,-13.39577 -28.56034,-16.997964 -9.46184,-5.632675 -11.09677,-6.503309 -11.68,-6.219834 -2.78938,1.355763 -51.48798,29.724568 -51.45582,29.974988 0.0338,0.26284 15.34017,9.39904 40.84922,24.38238 3.1136,1.82885 4.03366,2.51035 3.68,2.72581 -3.59918,2.19283 -26.15606,14.97181 -26.42755,14.97181 -0.20327,0 -10.54052,-5.98421 -22.97166,-13.29825 l -22.60208,-13.29824 -26.98599,15.54704 c -14.84231,8.55086 -27.22753,15.72364 -27.52273,15.93949 -0.45942,0.33594 3.58754,2.78887 28.09887,17.03121 15.74957,9.15131 28.64098,16.71581 28.64758,16.81001 0.0125,0.17833 -25.44052,14.88188 -26.24812,15.16287 -0.25294,0.088 -4.20388,-2.02258 -8.77988,-4.69019 z M 68.48,149.21153 C 55.896,141.89667 35.889098,130.27963 24.020218,123.39589 12.151338,116.51215 2.467364,110.736 2.5002762,110.56 2.5485715,110.30174 190.22585,1.3037934 191.59678,0.73780792 192.08946,0.53440776 225.65882,20.549641 225.34632,20.860472 225.11445,21.09111 65.830106,113.29633 64.24,114.12038 c -0.484,0.25083 -0.875062,0.56035 -0.869024,0.68783 0.006,0.12749 3.786035,2.41503 8.4,5.08344 17.412538,10.07026 46.478614,27.03791 46.715044,27.27043 0.30662,0.30155 -25.795918,15.40703 -26.56577,15.37356 C 91.612112,162.52224 81.064,156.52639 68.48,149.21153 Z"
       id="path12" />
  </g>
</svg>
